<svg xmlns="http://www.w3.org/2000/svg" viewBox="0 0 379.71 379.71"><defs><style>.cls-1,.cls-5,.cls-6,.cls-7{fill:none;stroke-miterlimit:10;}.cls-1{stroke:#5c9ea6;stroke-width:3.71px;}.cls-2{fill:#d8f2f0;}.cls-3{fill:#7bbfb8;}.cls-4{fill:#fff;}.cls-5,.cls-6,.cls-7{stroke:#7bbfb8;}.cls-5{stroke-width:1.34px;}.cls-6{stroke-width:0.7px;}.cls-7{stroke-linecap:round;stroke-width:0.87px;}.cls-8{font-size:27px;fill:#5c9ea6;font-family:Scrivano;}.cls-9{letter-spacing:-0.01em;}.cls-10{letter-spacing:-0.01em;}</style></defs><g id="Hintergrund"><circle id="Kreis" class="cls-1" cx="189.86" cy="189.86" r="188"/><circle id="Kreis-2" data-name="Kreis" class="cls-2" cx="189.86" cy="189.86" r="186.14"/></g><g id="Tools"><path class="cls-3" d="M110.15,85.22a34.52,34.52,0,0,0,3.47,4.26l164.56,165.2a26.58,26.58,0,0,1,3.35,4.34l3.26,5.49a11,11,0,0,0,3.87,3.62l4.84,2.44a4.07,4.07,0,0,0,4.41-.72l4.14-4.13a3.67,3.67,0,0,0,.49-4.3l-4-6.37a11.88,11.88,0,0,0-3.92-3.61L291,249.53a21,21,0,0,1-4.4-3.21L121.67,81.44A30.22,30.22,0,0,0,117.38,78L99,66.29c-1.28-.82-1.65-.45-.81.82Z" transform="translate(-10.14 -10.14)"/><rect class="cls-3" x="76.67" y="161.26" width="249.49" height="17.64" rx="2.48" transform="translate(-71.42 182.1) rotate(-45)"/><rect class="cls-4" x="132.47" y="228.87" width="8.5" height="12.74" rx="3" transform="translate(-136.44 155.43) rotate(-45)"/><rect class="cls-3" x="287.5" y="72.54" width="8.53" height="13.81" rx="3" transform="translate(19.14 219.44) rotate(-45)"/><rect class="cls-5" x="287.5" y="72.54" width="8.53" height="13.81" rx="3" transform="translate(19.14 219.44) rotate(-45)"/><path class="cls-3" d="M293.65,72.31c.83-.83,2.47-.56,3.64.61l1,1c1.16,1.16,1.44,2.8.6,3.64s-2.47.55-3.63-.61l-1-1C293.09,74.78,292.81,73.14,293.65,72.31Z" transform="translate(-10.14 -10.14)"/><path class="cls-6" d="M293.65,72.31c.83-.83,2.47-.56,3.64.61l1,1c1.16,1.16,1.44,2.8.6,3.64s-2.47.55-3.63-.61l-1-1C293.09,74.78,292.81,73.14,293.65,72.31Z" transform="translate(-10.14 -10.14)"/><line class="cls-7" x1="287.27" y1="62.9" x2="293.28" y2="56.89"/></g><g id="Name"><text class="cls-8" transform="translate(108.35 317.1)">n<tspan class="cls-9" x="14.5" y="0">ee</tspan><tspan x="38.02" y="0">dle_addict</tspan><tspan class="cls-10" x="155.11" y="0">e</tspan><tspan x="166.89" y="0">d</tspan></text></g></svg>